

<svg width="109" height="25" viewBox="0 0 109 27" fill="none" xmlns="http://www.w3.org/2000/svg">
<g clip-path="url(#clip0_7_665)">
<path d="M34.6179 22V6.88H41.0019C42.0799 6.88 43.0179 7.062 43.8159 7.426C44.6139 7.79 45.2229 8.301 45.6429 8.959C46.0769 9.617 46.2939 10.387 46.2939 11.269C46.2939 12.137 46.0769 12.9 45.6429 13.558C45.2229 14.216 44.6139 14.727 43.8159 15.091C43.0179 15.455 42.0799 15.637 41.0019 15.637H36.7599V13.558H40.9179C41.7999 13.558 42.4719 13.355 42.9339 12.949C43.4099 12.543 43.6479 11.983 43.6479 11.269C43.6479 10.555 43.4169 10.009 42.9549 9.631C42.4929 9.239 41.8139 9.043 40.9179 9.043H37.3479V22H34.6179ZM43.2699 22L36.5289 14.272H39.5949L47.0499 22H43.2699ZM52.2745 22.21C51.1405 22.21 50.1465 21.972 49.2925 21.496C48.4525 21.02 47.7945 20.362 47.3185 19.522C46.8565 18.682 46.6255 17.716 46.6255 16.624C46.6255 15.532 46.8565 14.573 47.3185 13.747C47.7945 12.907 48.4525 12.256 49.2925 11.794C50.1325 11.318 51.1125 11.08 52.2325 11.08C53.2965 11.08 54.2205 11.304 55.0045 11.752C55.7885 12.186 56.3975 12.802 56.8315 13.6C57.2655 14.398 57.4825 15.329 57.4825 16.393C57.4825 16.589 57.4755 16.771 57.4615 16.939C57.4475 17.107 57.4265 17.275 57.3985 17.443H48.2635V15.595H55.3615L54.8155 16.099C54.8155 15.091 54.5845 14.335 54.1225 13.831C53.6605 13.327 53.0165 13.075 52.1905 13.075C51.2945 13.075 50.5805 13.383 50.0485 13.999C49.5305 14.615 49.2715 15.504 49.2715 16.666C49.2715 17.814 49.5305 18.696 50.0485 19.312C50.5805 19.914 51.3295 20.215 52.2955 20.215C52.8555 20.215 53.3455 20.11 53.7655 19.9C54.1855 19.69 54.4935 19.368 54.6895 18.934H57.1885C56.8385 19.942 56.2435 20.74 55.4035 21.328C54.5775 21.916 53.5345 22.21 52.2745 22.21ZM63.6171 22.21C62.5391 22.21 61.5871 21.972 60.7611 21.496C59.9491 21.02 59.3051 20.362 58.8291 19.522C58.3671 18.668 58.1361 17.702 58.1361 16.624C58.1361 15.546 58.3671 14.594 58.8291 13.768C59.3051 12.928 59.9491 12.27 60.7611 11.794C61.5871 11.318 62.5391 11.08 63.6171 11.08C64.4991 11.08 65.2971 11.248 66.0111 11.584C66.7251 11.906 67.3131 12.368 67.7751 12.97C68.2371 13.558 68.5311 14.244 68.6571 15.028H66.1161C65.9621 14.454 65.6681 14.006 65.2341 13.684C64.8001 13.362 64.2751 13.201 63.6591 13.201C63.0851 13.201 62.5881 13.341 62.1681 13.621C61.7621 13.901 61.4471 14.3 61.2231 14.818C60.9991 15.336 60.8871 15.938 60.8871 16.624C60.8871 17.324 60.9991 17.933 61.2231 18.451C61.4471 18.969 61.7691 19.375 62.1891 19.669C62.6091 19.949 63.0991 20.089 63.6591 20.089C64.2751 20.089 64.8001 19.928 65.2341 19.606C65.6681 19.284 65.9621 18.836 66.1161 18.262H68.6571C68.5311 19.046 68.2301 19.739 67.7541 20.341C67.2921 20.929 66.7041 21.391 65.9901 21.727C65.2901 22.049 64.4991 22.21 63.6171 22.21ZM76.4675 22C76.3975 21.72 76.3415 21.412 76.2995 21.076C76.2715 20.74 76.2575 20.334 76.2575 19.858H76.1735V14.776C76.1735 14.216 76.0125 13.796 75.6905 13.516C75.3825 13.222 74.9065 13.075 74.2625 13.075C73.6325 13.075 73.1285 13.194 72.7505 13.432C72.3865 13.656 72.1625 13.985 72.0785 14.419H69.5375C69.6495 13.425 70.1255 12.62 70.9655 12.004C71.8055 11.388 72.9325 11.08 74.3465 11.08C75.8165 11.08 76.9295 11.416 77.6855 12.088C78.4415 12.746 78.8195 13.719 78.8195 15.007V19.858C78.8195 20.194 78.8405 20.537 78.8825 20.887C78.9385 21.237 79.0155 21.608 79.1135 22H76.4675ZM72.7505 22.21C71.6725 22.21 70.8115 21.944 70.1675 21.412C69.5375 20.866 69.2225 20.138 69.2225 19.228C69.2225 18.248 69.5795 17.471 70.2935 16.897C71.0075 16.323 72.0155 15.938 73.3175 15.742L76.6565 15.238V16.918L73.7585 17.359C73.1285 17.457 72.6525 17.632 72.3305 17.884C72.0225 18.136 71.8685 18.486 71.8685 18.934C71.8685 19.34 72.0155 19.655 72.3095 19.879C72.6035 20.089 73.0095 20.194 73.5275 20.194C74.2835 20.194 74.9135 20.005 75.4175 19.627C75.9215 19.249 76.1735 18.787 76.1735 18.241L76.4675 19.858C76.1875 20.628 75.7255 21.216 75.0815 21.622C74.4515 22.014 73.6745 22.21 72.7505 22.21ZM80.8694 22V6.88H83.5154V22H80.8694ZM85.6945 22V6.88H88.3405V22H85.6945Z" fill="black"/>
<path d="M19.3789 8.16675C19.1482 8.16675 18.9226 8.23518 18.7307 8.36337C18.5389 8.49157 18.3893 8.67377 18.301 8.88696C18.2127 9.10014 18.1896 9.33471 18.2347 9.56102C18.2797 9.78734 18.3908 9.99522 18.5539 10.1584C18.7171 10.3215 18.925 10.4327 19.1513 10.4777C19.3776 10.5227 19.6122 10.4996 19.8254 10.4113C20.0386 10.323 20.2208 10.1734 20.349 9.98158C20.4771 9.78973 20.5456 9.56416 20.5456 9.33342C20.5456 9.024 20.4227 8.72725 20.2039 8.50846C19.9851 8.28967 19.6883 8.16675 19.3789 8.16675ZM12.7336 18.8231C12.5337 18.9385 12.3726 19.1105 12.2705 19.3174C12.1685 19.5244 12.1301 19.757 12.1602 19.9857C12.1903 20.2145 12.2876 20.4292 12.4398 20.6027C12.5919 20.7762 12.7921 20.9007 13.015 20.9604C13.2378 21.0201 13.4734 21.0124 13.6919 20.9382C13.9104 20.864 14.102 20.7267 14.2425 20.5437C14.383 20.3606 14.466 20.14 14.4811 19.9097C14.4962 19.6795 14.4426 19.4499 14.3272 19.2501C14.1725 18.9821 13.9177 18.7866 13.6188 18.7065C13.32 18.6265 13.0015 18.6684 12.7336 18.8231ZM26.0242 18.8231C25.8244 18.7077 25.5949 18.6542 25.3646 18.6693C25.1343 18.6843 24.9137 18.7674 24.7307 18.9078C24.5476 19.0483 24.4103 19.2399 24.3361 19.4584C24.262 19.6769 24.2542 19.9125 24.314 20.1354C24.3737 20.3583 24.4981 20.5584 24.6716 20.7106C24.8451 20.8627 25.0598 20.96 25.2886 20.9901C25.5174 21.0202 25.7499 20.9818 25.9569 20.8798C26.1638 20.7777 26.3359 20.6166 26.4512 20.4168C26.6059 20.1488 26.6479 19.8304 26.5678 19.5315C26.4877 19.2326 26.2922 18.9778 26.0242 18.8231ZM29.4239 15.5669C28.729 14.9138 27.8824 14.4442 26.9605 14.2004C26.0386 13.9565 25.0705 13.9463 24.1436 14.1704L23.6547 13.2803C24.3475 12.5345 24.8325 11.6201 25.0616 10.6284C25.2907 9.63668 25.2558 8.60221 24.9603 7.6282C24.6648 6.65418 24.1191 5.77465 23.3777 5.07734C22.6362 4.38002 21.7249 3.88929 20.7346 3.65409C19.872 3.45231 18.975 3.44802 18.1106 3.64156C17.2461 3.83509 16.4366 4.22144 15.7424 4.77175C15.0557 5.31705 14.5014 6.01069 14.121 6.8007C13.7405 7.5907 13.5438 8.45658 13.5456 9.33342C13.5454 10.8058 14.11 12.2222 15.1229 13.2908L14.6341 14.1658C13.6402 13.9314 12.6022 13.9627 11.6242 14.2563C10.6462 14.5499 9.7626 15.0956 9.06215 15.8386C8.36169 16.5816 7.86899 17.4958 7.63348 18.4894C7.39797 19.483 7.42795 20.5211 7.72041 21.4994C7.97638 22.3476 8.42109 23.1269 9.02119 23.7787C9.62129 24.4305 10.3612 24.938 11.1854 25.2631C11.9319 25.5584 12.7315 25.6956 13.5337 25.6658C14.3359 25.6361 15.1232 25.44 15.8457 25.0902C16.5682 24.7403 17.2102 24.2443 17.7311 23.6334C18.2519 23.0225 18.6402 22.3102 18.8714 21.5414L19.8829 21.5578C20.2466 22.7472 20.9823 23.7886 21.982 24.5287C22.9817 25.2687 24.1924 25.6685 25.4362 25.6691C26.6934 25.6673 27.9167 25.2611 28.9252 24.5104C29.9337 23.7597 30.6739 22.7044 31.0362 21.5006C31.3536 20.4601 31.3707 19.3511 31.0854 18.3013C30.8002 17.2516 30.2242 16.3037 29.4239 15.5669ZM28.8079 20.8111C28.6588 21.3206 28.3959 21.7896 28.0391 22.1828C27.6823 22.576 27.2409 22.883 26.7482 23.0807C26.2554 23.2784 25.7243 23.3617 25.1947 23.3242C24.6651 23.2867 24.1509 23.1295 23.6909 22.8644C22.9324 22.4248 22.3688 21.714 22.1136 20.8753C21.9724 20.3937 21.6789 19.9709 21.2772 19.6701C20.8754 19.3693 20.3871 19.2068 19.8852 19.2069H18.8714C18.3698 19.2078 17.8819 19.3706 17.4803 19.6712C17.0788 19.9719 16.7851 20.3942 16.6431 20.8753C16.5027 21.3345 16.2687 21.7596 15.9558 22.1239C15.643 22.4882 15.2581 22.7837 14.8253 22.9918C14.3926 23.2 13.9214 23.3162 13.4416 23.3333C12.9617 23.3503 12.4835 23.2677 12.0371 23.0908C11.213 22.7709 10.5409 22.1505 10.1564 21.3546C9.77182 20.5587 9.70343 19.6466 9.96499 18.8022C10.2266 17.9579 10.7986 17.2441 11.5658 16.805C12.3329 16.3659 13.238 16.234 14.0986 16.4361C14.5832 16.5525 15.0925 16.5083 15.5497 16.3101C16.007 16.1119 16.3875 15.7704 16.6337 15.3371L17.1424 14.4574C17.3928 14.0229 17.4962 13.5191 17.4371 13.0211C17.378 12.5231 17.1597 12.0575 16.8146 11.6936C16.4868 11.3424 16.2353 10.9271 16.0761 10.4739C15.9168 10.0207 15.8532 9.53934 15.8893 9.06031C15.9253 8.58127 16.0603 8.11491 16.2856 7.69064C16.5109 7.26637 16.8217 6.8934 17.1984 6.59525C17.8859 6.04212 18.7573 5.7698 19.6375 5.83302C20.5176 5.89625 21.3411 6.29035 21.9425 6.93607C22.5439 7.58179 22.8785 8.43125 22.8791 9.31365C22.8797 10.196 22.5461 11.0459 21.9456 11.6924C21.6007 12.0566 21.3823 12.5222 21.3228 13.0203C21.2633 13.5183 21.3659 14.0223 21.6154 14.4574L22.1229 15.3359C22.3696 15.7691 22.7503 16.1105 23.2076 16.3089C23.665 16.5073 24.1744 16.5519 24.6592 16.4361C25.2532 16.2953 25.8738 16.3129 26.4588 16.4872C27.0439 16.6615 27.5729 16.9864 27.9929 17.4294C28.413 17.8724 28.7093 18.4179 28.8523 19.0113C28.9954 19.6048 28.98 20.2254 28.8079 20.8111Z" fill="black"/>
</g>
<defs>
<clipPath id="clip0_7_665">
<rect width="108.04" height="27" fill="white"/>
</clipPath>
</defs>
</svg>
